<svg xmlns="http://www.w3.org/2000/svg" viewBox="0 0 36 36" width="36" height="36">
  <!-- Roof -->
  <path d="M18 3L2 17h4v14h24V17h4L18 3z" fill="#1a56db"/>
  <!-- Wall -->
  <rect x="6" y="17" width="24" height="14" rx="1" fill="#4f7cf7"/>
  <!-- Roof shadow -->
  <path d="M18 3L2 17h4l12-11 12 11h4L18 3z" fill="#1a56db"/>
  <!-- Door -->
  <rect x="14" y="22" width="8" height="9" rx="1.5" fill="#fff"/>
  <!-- Door handle -->
  <circle cx="20" cy="27" r="0.8" fill="#1a56db"/>
  <!-- Left window -->
  <rect x="8.5" y="19.5" width="4" height="4" rx="0.8" fill="#fff"/>
  <line x1="10.5" y1="19.5" x2="10.5" y2="23.5" stroke="#4f7cf7" stroke-width="0.5"/>
  <line x1="8.5" y1="21.5" x2="12.5" y2="21.5" stroke="#4f7cf7" stroke-width="0.5"/>
  <!-- Right window -->
  <rect x="23.5" y="19.5" width="4" height="4" rx="0.8" fill="#fff"/>
  <line x1="25.5" y1="19.5" x2="25.5" y2="23.5" stroke="#4f7cf7" stroke-width="0.5"/>
  <line x1="23.5" y1="21.5" x2="27.5" y2="21.5" stroke="#4f7cf7" stroke-width="0.5"/>
  <!-- Chimney -->
  <rect x="24" y="8" width="4" height="9" rx="0.5" fill="#e74c3c"/>
  <!-- Smoke -->
  <circle cx="26" cy="6" r="1.2" fill="#ddd" opacity="0.6"/>
  <circle cx="27.5" cy="4" r="1" fill="#ddd" opacity="0.4"/>
</svg>
